<?xml version="1.0" encoding="UTF-8" standalone="no"?>
<!-- Created with Inkscape (http://www.inkscape.org/) -->

<svg
   width="40"
   height="40"
   viewBox="0 0 10.583333 10.583333"
   version="1.1"
   id="svg5"
   xml:space="preserve"
   inkscape:version="1.2.1 (9c6d41e410, 2022-07-14)"
   sodipodi:docname="cuisineLogo.svg"
   xmlns:inkscape="http://www.inkscape.org/namespaces/inkscape"
   xmlns:sodipodi="http://sodipodi.sourceforge.net/DTD/sodipodi-0.dtd"
   xmlns="http://www.w3.org/2000/svg"
   xmlns:svg="http://www.w3.org/2000/svg"><sodipodi:namedview
     id="namedview7"
     pagecolor="#ffffff"
     bordercolor="#000000"
     borderopacity="0.25"
     inkscape:showpageshadow="2"
     inkscape:pageopacity="0.0"
     inkscape:pagecheckerboard="0"
     inkscape:deskcolor="#d1d1d1"
     inkscape:document-units="mm"
     showgrid="false"
     inkscape:zoom="11.313709"
     inkscape:cx="7.5130095"
     inkscape:cy="18.473165"
     inkscape:window-width="1304"
     inkscape:window-height="745"
     inkscape:window-x="-8"
     inkscape:window-y="-8"
     inkscape:window-maximized="1"
     inkscape:current-layer="g726" /><defs
     id="defs2" /><g
     inkscape:label="Layer 1"
     inkscape:groupmode="layer"
     id="layer1"><g
       id="g409"
       transform="translate(-24.180531,-31.539823)"><g
         id="g726"
         transform="matrix(0.06100993,0,0,0.11439362,21.300798,8.9192334)"><path
           style="fill:#ff2a2a;stroke-width:0.264583"
           d="m 82.882182,288.55786 c -2.19798,-0.52261 -7.00432,-2.96601 -9.43747,-4.79775 -6.86663,-5.16936 -14.077906,-13.00245 -19.918376,-21.63591 -2.08826,-3.0869 -3.43709,-5.66146 -3.87296,-7.39248 -0.26354,-1.04658 -0.24236,-1.38164 0.14105,-2.23189 0.804,-1.78297 1.21615,-1.88501 7.61367,-1.88501 h 5.6651 l 0.31029,-2.97674 c 1.32247,-12.68698 8.879916,-23.64199 20.319576,-29.45454 4.31136,-2.19063 8.91313,-3.4791 14.35708,-4.01991 l 1.948788,-0.1936 0.57823,-1.60019 c 1.535,-4.24793 5.01822,-8.47548 8.75335,-10.62387 8.32216,-4.78677 18.93898,-3.0901 25.17905,4.02386 l 1.28566,1.4657 3.03952,-0.71358 c 2.71013,-0.63625 3.56997,-0.71482 7.93431,-0.72503 6.88977,-0.0161 10.84068,0.88321 16.80105,3.82438 7.16905,3.5376 12.37482,8.66875 16.5811,16.3434 0.33818,0.61703 0.67877,0.84097 1.45521,0.95679 4.40956,0.65779 6.07388,1.07888 8.39396,2.12377 6.36932,2.86854 11.15163,8.09583 13.43875,14.68921 0.39934,1.15126 1.26436,5.69482 1.27212,6.68192 8e-4,0.10914 2.62269,0.19843 5.82628,0.19843 h 5.82472 l 0.9883,0.90572 c 1.40379,1.28647 1.38144,2.64304 -0.0941,5.70887 -2.97823,6.18826 -12.11069,17.49371 -18.75867,23.22215 -3.88286,3.3458 -6.08869,4.87604 -9.26313,6.42607 -4.65347,2.27221 0.0464,2.09621 -55.43021,2.07582 -41.769908,-0.0153 -49.588488,-0.0761 -50.932288,-0.39559 z m 103.319788,-7.31094 c 1.38245,-0.68761 3.64464,-2.09549 5.02708,-3.12862 5.22133,-3.90204 12.83514,-12.20721 17.57337,-19.1691 l 1.26052,-1.85208 -37.97057,-0.067 c -20.88382,-0.0369 -55.12446,-0.0369 -76.090308,0 l -38.119736,0.067 1.25514,1.86535 c 4.70772,6.99651 12.319346,15.29632 17.659296,19.25593 2.40548,1.78367 6.07924,3.78699 7.62583,4.15839 0.46246,0.11106 22.986468,0.18356 50.053338,0.16112 l 49.2125,-0.0408 z M 76.135312,249.20945 c 0,-4.60823 3.31543,-11.49791 7.37657,-15.32898 4.9214,-4.6426 10.5202,-6.87367 17.194518,-6.85185 12.27713,0.0401 22.48367,8.98439 24.12207,21.13881 l 0.3299,2.44739 h 1.02076 c 0.63922,0 1.02146,-0.12361 1.02263,-0.33072 0.009,-1.66651 0.87228,-5.49581 1.63684,-7.26422 1.0181,-2.35486 1.05714,-2.02178 -0.64129,-5.47228 -1.42016,-2.88521 -2.85129,-4.91802 -5.20551,-7.39404 -8.47345,-8.91185 -21.03163,-11.92389 -32.701288,-7.8433 -8.60994,3.01068 -15.89882,10.21813 -18.85795,18.64727 -1.18273,3.36903 -2.19236,8.72476 -1.77274,9.40372 0.0862,0.13947 1.57844,0.25357 3.3161,0.25357 h 3.15939 z m 12.89597,0.0532 c 0.7911,-3.33035 3.13917,-6.51809 5.91337,-8.028 6.820448,-3.71215 15.494768,0.25696 17.030568,7.79269 l 0.29657,1.45521 3.25538,0.0745 3.25538,0.0745 -0.17528,-1.13282 c -1.00236,-6.47786 -4.52225,-11.49488 -10.01226,-14.27084 -4.33719,-2.19304 -10.286698,-2.40002 -14.948448,-0.52006 -3.42282,1.38034 -6.83149,4.36864 -8.77075,7.68911 -1.21119,2.07384 -2.3905,5.6289 -2.3905,7.20622 v 1.0117 h 3.11238 3.11239 z m 16.616158,0.64073 c -0.40859,-1.62796 -1.89427,-2.9959 -3.81563,-3.51327 -2.204118,-0.59351 -4.943278,0.62269 -5.998558,2.66337 -0.81826,1.58234 -0.88279,1.56136 4.804698,1.56136 h 5.18806 z m 53.48293,0.34861 c 0.24694,-0.21627 -0.54781,-3.79099 -1.09579,-4.92881 -1.20399,-2.49994 -1.42776,-2.81807 -3.01723,-4.28964 -6.27596,-5.81043 -16.19762,-3.8778 -20.04373,3.90429 -0.73037,1.4778 -0.99477,2.38579 -1.09251,3.75195 l -0.12896,1.80233 12.66502,-0.099 c 6.96575,-0.0544 12.68669,-0.11795 12.7132,-0.14116 z m 9.47036,-0.877 c 0.28933,-1.92937 1.66628,-4.55355 3.18874,-6.07705 6.25559,-6.25989 16.70328,-3.67455 19.458,4.81497 0.32846,1.01226 0.63354,1.9893 0.67796,2.17121 0.0588,0.24079 0.91043,0.33072 3.13178,0.33072 h 3.05101 v -1.16275 c 0,-1.52597 -0.87524,-4.33573 -2.06912,-6.64245 -1.43431,-2.77128 -4.78981,-6.0149 -7.73794,-7.47995 -4.95635,-2.46301 -10.01582,-2.57336 -14.97113,-0.32651 -3.2623,1.47919 -6.78324,4.24385 -8.42869,6.61825 l -0.75373,1.08763 0.58393,1.81304 c 0.32116,0.99717 0.64998,2.62714 0.73071,3.62216 0.20442,2.5196 0.17166,2.47058 1.65137,2.47058 h 1.30118 z m 16.66286,0.64454 c -1.02981,-3.40042 -5.20547,-4.85197 -8.15118,-2.83354 -1.01184,0.69333 -2.02294,2.14078 -2.02294,2.89598 0,0.51596 0.16437,0.53287 5.17721,0.53287 h 5.1772 z m -23.70116,-14.50717 c 1.33863,-1.5544 1.33548,-1.57511 -0.61002,-4.01149 -3.72402,-4.66365 -10.07578,-7.25531 -16.00752,-6.53142 -4.28701,0.52316 -7.85976,2.23306 -10.81058,5.17387 l -1.66453,1.65889 0.95988,1.83236 0.95988,1.83235 1.36611,-0.92706 c 6.88203,-4.6702 16.11458,-4.29843 22.6549,0.91225 0.95148,0.75805 1.78949,1.38409 1.86225,1.3912 0.0728,0.007 0.6531,-0.59181 1.28963,-1.33095 z m 7.71013,-6.01754 c 0.50716,-0.2654 1.69603,-0.76159 2.64191,-1.10265 0.94589,-0.34106 1.76585,-0.65616 1.82215,-0.70021 0.33143,-0.25935 -2.61673,-4.07719 -4.99233,-6.46501 -4.91438,-4.93967 -10.12251,-7.61172 -17.18321,-8.81592 -7.14355,-1.21833 -15.37361,0.57434 -21.66485,4.71903 -1.90415,1.25447 -5.95779,4.84002 -5.81537,5.14386 0.042,0.0895 1.05728,1.10491 2.25622,2.25637 l 2.1799,2.09357 1.52427,-1.448 c 3.20424,-3.04391 7.44691,-5.29036 11.71072,-6.20071 2.87349,-0.61351 7.6088,-0.62489 10.25063,-0.0246 5.8697,1.33365 11.27415,4.81458 14.63014,9.42307 0.64234,0.88207 1.29159,1.60376 1.44279,1.60376 0.1512,0 0.68986,-0.21714 1.19703,-0.48253 z m -49.42984,-12.38951 c 2.24963,-2.39525 7.01317,-6.03689 9.07472,-6.93745 l 0.79151,-0.34576 -1.18839,-1.03869 c -2.91787,-2.55034 -7.28133,-3.81231 -11.12475,-3.2174 -4.12252,0.63811 -8.19274,3.55466 -10.02433,7.18301 -0.46406,0.91929 -0.80618,1.69684 -0.76027,1.72789 0.0459,0.031 1.33363,0.3362 2.8616,0.67812 3.39482,0.75966 6.13403,1.80919 8.9147,3.41565 0.0281,0.0162 0.68299,-0.64316 1.45521,-1.46537 z"
           id="path351" /></g></g></g></svg>
