<?xml version="1.0" encoding="UTF-8" standalone="no"?>
<!-- Created with Inkscape (http://www.inkscape.org/) -->

<svg
   width="260mm"
   height="106mm"
   viewBox="0 0 260 106"
   version="1.1"
   id="svg5"
   inkscape:version="1.2.1 (9c6d41e410, 2022-07-14)"
   sodipodi:docname="elMakinaRestaurant.svg"
   xmlns:inkscape="http://www.inkscape.org/namespaces/inkscape"
   xmlns:sodipodi="http://sodipodi.sourceforge.net/DTD/sodipodi-0.dtd"
   xmlns="http://www.w3.org/2000/svg"
   xmlns:svg="http://www.w3.org/2000/svg">
  <sodipodi:namedview
     id="namedview7"
     pagecolor="#ffffff"
     bordercolor="#000000"
     borderopacity="0.25"
     inkscape:showpageshadow="2"
     inkscape:pageopacity="0.0"
     inkscape:pagecheckerboard="0"
     inkscape:deskcolor="#d1d1d1"
     inkscape:document-units="mm"
     showgrid="false"
     inkscape:zoom="0.26459683"
     inkscape:cx="582.01755"
     inkscape:cy="351.47813"
     inkscape:window-width="1304"
     inkscape:window-height="745"
     inkscape:window-x="-8"
     inkscape:window-y="-8"
     inkscape:window-maximized="1"
     inkscape:current-layer="layer1" />
  <defs
     id="defs2" />
  <g
     inkscape:label="Layer 1"
     inkscape:groupmode="layer"
     id="layer1">
    <g
       id="g259"
       transform="matrix(1.4471916,0,0,1.4507183,-21.693907,-66.709627)">
      <g
         id="g1797"
         transform="matrix(0.78494623,0,0,0.78494623,-0.72905304,54.229265)">
        <g
           id="g1808"
           transform="translate(16.742029,-103.1309)">
          <rect
             style="fill:#000000;stroke:#000000;stroke-width:0;stop-color:#000000"
             id="rect1140"
             width="228.87976"
             height="93.085678"
             x="3.2840629"
             y="92.62648"
             ry="9.5087528" />
          <path
             style="fill:#dbe3de;stroke-width:0.209927"
             d="m 197.13884,146.34825 c -0.0617,-3.57657 -0.13501,-4.3407 -0.53327,-5.56311 -0.74122,-2.2751 -1.41604,-2.81661 -5.01997,-4.02827 -1.65041,-0.55487 -3.03278,-0.97367 -3.07192,-0.93067 -0.0391,0.043 -0.60295,0.89744 -1.25289,1.89876 -3.18887,4.91285 -3.83414,7.87033 -3.45017,15.8133 0.28086,5.80983 0.2626,5.73687 1.64252,6.56219 0.62923,0.37635 1.22569,0.65706 1.32546,0.6238 0.0998,-0.0332 1.2553,-2.04158 2.56784,-4.46294 1.31254,-2.42136 2.49475,-4.58166 2.62713,-4.80068 0.52312,-0.86548 0.63049,0.19864 0.49028,4.85916 -0.0773,2.56898 -0.0777,4.67088 -7.9e-4,4.67088 0.0768,0 0.77489,-0.31673 1.55136,-0.70384 0.77647,-0.38711 1.83688,-0.86325 2.35644,-1.05807 l 0.94467,-0.35424 -0.0525,-4.1901 c -0.0289,-2.30456 -0.0847,-6.05583 -0.12408,-8.33617 z m -5.78301,1.7319 c -1.56056,4.07805 -2.38502,5.60196 -2.6478,4.89411 -0.18442,-0.49674 -0.4463,-10.34728 -0.28035,-10.54469 0.5108,-0.60755 3.75175,2.05419 3.73799,3.06997 -0.004,0.26473 -0.36802,1.42602 -0.80984,2.58061 z m -10.42261,-8.81325 c -0.47139,-1.8098 -1.03569,-2.59523 -2.28121,-3.17519 -0.58837,-0.27397 -1.21503,-0.49905 -1.39259,-0.50017 -0.17756,-8e-4 -1.06175,0.80533 -1.96488,1.79214 -0.90314,0.9868 -1.74978,1.7587 -1.88141,1.71533 -0.13855,-0.0456 -0.28356,-0.75743 -0.34432,-1.69009 l -0.10496,-1.61124 -2.45974,1.41788 -2.45974,1.41787 -0.007,10.88619 c -0.006,10.28496 0.0134,10.87813 0.36047,10.74037 0.38535,-0.15294 3.34959,-0.8816 4.25103,-1.04496 l 0.52481,-0.0951 -0.0679,-7.96237 -0.0679,-7.96236 0.65562,-1.1617 c 0.83833,-1.48544 1.16655,-1.77412 1.43474,-1.26186 0.34104,0.65142 0.84446,3.2178 1.10419,5.6291 0.27863,2.58683 0.15584,6.60333 -0.35167,11.50278 -0.17693,1.70814 -0.2865,3.21129 -0.24348,3.34034 0.043,0.12905 1.18257,-0.98512 2.53235,-2.47592 2.42118,-2.67414 2.45444,-2.72465 2.47595,-3.76019 0.012,-0.5773 0.14022,-2.65558 0.28493,-4.61839 0.39114,-5.30512 0.39217,-9.62696 0.002,-11.12246 z m -16.60832,7.10435 -0.13967,-10.31591 -1.9277,1.33469 c -1.817,1.25806 -4.32974,2.60739 -4.85617,2.60776 -0.21382,1.5e-4 -0.75743,3.12862 -0.57953,3.33514 0.0761,0.0883 1.40279,0.0747 2.0769,-0.0213 0.41404,-0.0589 0.41986,0.0602 0.41986,8.61549 v 8.67529 l 0.62978,-0.12376 c 0.34638,-0.0681 1.56184,-0.38184 2.70104,-0.69729 l 2.07125,-0.57353 -0.12804,-1.26034 c -0.0705,-0.69318 -0.1909,-5.90249 -0.26772,-11.57624 z m -0.84928,-21.80294 c -1.67052,-3.19802 -4.50336,-1.63358 -4.82858,2.66658 -0.20452,2.70426 0.80627,5.13134 2.29123,5.50162 1.1945,0.29786 2.12127,-0.47364 2.8165,-2.34463 0.45245,-1.21762 0.28327,-4.74688 -0.27915,-5.82357 z m -7.63433,28.33944 c -1.39255,-3.6164 -2.26051,-4.75194 -3.9008,-5.10341 -0.71297,-0.15278 -0.80425,-0.24101 -0.76858,-0.74304 0.0223,-0.31333 0.53153,-1.67651 1.1317,-3.02929 0.81387,-1.83447 1.16334,-2.9398 1.37503,-4.34894 0.31152,-2.07361 0.36776,-3.46381 0.14013,-3.46381 -0.0807,0 -1.05929,0.29914 -2.17471,0.66474 l -2.02804,0.66476 -0.11964,2.9565 c -0.0658,1.62606 -0.27428,3.75946 -0.46328,4.74088 -0.49615,2.57632 -1.30947,5.72203 -1.6483,6.37511 l -0.29229,0.56339 -0.13229,-0.66148 c -0.203,-1.01496 -0.15335,-10.86724 0.0808,-16.03863 0.26541,-5.86147 0.70938,-10.3344 1.18522,-11.94104 0.10515,-0.35501 0.0349,-0.38004 -0.69315,-0.247 -0.80074,0.14632 -4.6454,1.68777 -4.96294,1.98981 -0.34942,0.33236 -0.56814,8.66813 -0.57544,21.93042 -0.004,7.6073 0.0275,13.86653 0.0703,13.90938 0.0428,0.0428 1.06119,-0.291 2.26295,-0.74192 1.58784,-0.59578 2.20242,-0.92615 2.24871,-1.2088 0.18354,-1.1207 1.37397,-5.04521 1.60257,-5.28319 0.55144,-0.5741 3.46472,3.27009 4.351,5.74133 0.2677,0.74643 0.5468,1.35715 0.62022,1.35715 0.0734,0 0.8517,-1.44063 1.72951,-3.20139 0.87782,-1.76076 1.59795,-3.20355 1.60029,-3.20618 0.002,-0.002 -0.28522,-0.75654 -0.63902,-1.67535 z m -17.46423,-10.94468 c -0.40679,-1.82648 -0.98256,-2.99951 -1.81686,-3.70155 -0.35942,-0.30242 -1.87193,-0.94626 -3.52549,-1.50068 l -2.896,-0.97104 -0.48294,0.58211 c -0.79787,0.96168 -2.72338,4.2736 -3.27566,5.63418 -1.03338,2.5458 -1.24368,4.49708 -1.08457,10.06268 0.0793,2.77103 0.20944,5.55238 0.28937,6.18077 0.14142,1.11181 0.17636,1.16116 1.29993,1.83599 0.63502,0.38141 1.21943,0.69387 1.29867,0.69434 0.17691,8e-4 1.68271,-2.65683 3.83551,-6.77006 0.96842,-1.85032 1.71075,-3.04177 1.84388,-2.95949 0.15369,0.095 0.17765,1.66513 0.0772,5.05952 -0.0801,2.70699 -0.0655,4.88897 0.0325,4.84884 0.098,-0.0402 1.212,-0.53459 2.47563,-1.09878 l 2.29752,-1.02581 -0.0175,-7.68618 c -0.0141,-6.20865 -0.0816,-7.97424 -0.35122,-9.18483 z m -5.41447,5.78141 c -1.55962,4.12347 -2.51192,5.90125 -2.78287,5.19517 -0.0621,-0.16194 -0.18139,-2.62049 -0.26501,-5.46346 -0.14877,-5.05843 -0.14315,-5.16904 0.26254,-5.16904 0.65762,0 2.59077,1.49373 3.12438,2.41417 l 0.48681,0.8397 z m -10.07307,-5.18829 c -0.28749,-4.96302 -0.88616,-9.00774 -2.12648,-14.36665 -0.47358,-2.04613 -0.75519,-2.88649 -0.96729,-2.88649 -0.62324,0 -3.59805,1.73531 -5.27524,3.07724 -1.96041,1.56851 -3.63066,3.4761 -4.8947,5.59021 -0.4686,0.78372 -0.95525,1.39053 -1.08147,1.34846 -0.13012,-0.0434 -0.38934,-1.47817 -0.59878,-3.31429 -0.32694,-2.86631 -1.24552,-8.49384 -1.54669,-9.47555 -0.12921,-0.4212 -0.84472,-0.33885 -2.44676,0.28161 -3.987158,1.54422 -6.780753,5.25372 -9.995523,13.27267 -1.216392,3.03417 -1.316126,3.04909 -1.609146,0.24083 -0.503738,-4.82777 -2.036398,-8.68916 -4.475435,-11.27543 -1.28938,-1.36721 -3.372955,-2.68473 -4.245739,-2.68473 -0.410709,0 -1.857512,2.33373 -2.928272,4.72337 -0.908623,2.02778 -2.583155,7.05055 -3.359109,10.07566 -0.35528,1.38505 -0.712457,2.58061 -0.793743,2.65678 -0.08128,0.0762 -0.469859,0.0293 -0.863493,-0.10413 -0.559627,-0.18971 -0.778295,-0.42472 -1.002715,-1.07764 -0.157852,-0.45926 -0.576956,-1.46409 -0.931347,-2.23293 l -0.644333,-1.39791 1.305867,-2.28049 c 0.718225,-1.25428 1.479033,-2.56861 1.690679,-2.92074 l 0.384811,-0.64024 -5.081882,-5.06474 -5.081874,-5.06474 -2.899919,1.67669 -2.899919,1.67669 -1.987544,-0.85252 c -1.09315,-0.46889 -2.07344,-0.85253 -2.178427,-0.85253 -0.307549,0 -0.41717,-0.28731 -1.182973,-3.10058 -0.400101,-1.46983 -0.777602,-2.83773 -0.83889,-3.03978 -0.103305,-0.34057 -0.63657,-0.36737 -7.308836,-0.36737 h -7.197403 l -0.837332,3.09642 c -0.941163,3.48039 -0.627717,3.10581 -3.649725,4.36147 l -1.801091,0.74835 -2.756594,-1.584 c -1.516126,-0.8712 -2.831886,-1.58399 -2.92391,-1.58399 -0.09202,0 -2.425397,2.25955 -5.185274,5.02123 l -5.017958,5.02122 1.628966,2.86516 1.628966,2.86515 -0.931564,2.24099 c -1.06631,2.56514 -0.700571,2.30638 -4.83032,3.41737 l -2.466644,0.66358 v 7.18038 7.18038 l 2.991462,0.79625 c 1.645304,0.43793 3.097798,0.90282 3.227764,1.03307 0.219754,0.22026 1.657933,3.36635 1.901089,4.15873 0.06334,0.20641 -0.568433,1.54354 -1.520678,3.21843 l -1.629041,2.86528 5.017958,5.02123 c 2.759877,2.76167 5.080923,5.02122 5.15788,5.02122 0.07696,0 1.372917,-0.7085 2.879908,-1.57445 1.506992,-0.86595 2.791792,-1.57446 2.855112,-1.57446 0.273323,0 4.226997,1.74996 4.441675,1.96594 0.13026,0.13106 0.59515,1.58445 1.03309,3.22976 l 0.796253,2.99145 h 7.198461 7.198461 l 0.234928,-0.89218 c 0.293064,-1.11298 1.231839,-4.53789 1.386247,-5.05741 0.06319,-0.2126 0.460032,-0.524 0.881881,-0.69201 0.421849,-0.16801 1.444859,-0.59417 2.273356,-0.94704 l 1.506359,-0.64159 2.807157,1.596 c 1.543934,0.87779 2.897859,1.59598 3.008716,1.59598 0.110858,0 2.440918,-2.24359 5.177927,-4.98575 l 4.976364,-4.98579 -1.677317,-2.91715 -1.677317,-2.91717 0.747589,-1.8062 c 1.249796,-3.01954 0.885399,-2.71051 4.268105,-3.61957 1.655538,-0.44491 3.096161,-0.86214 3.201393,-0.92717 0.10904,-0.0674 0.191326,-3.16913 0.191326,-7.21222 v -7.09398 l -1.366953,-0.37002 c -0.751818,-0.20351 -1.413749,-0.44574 -1.470947,-0.53829 -0.169952,-0.27498 0.50995,-4.69557 1.042141,-6.77583 0.693691,-2.71153 1.456284,-4.64588 1.862994,-4.7256 0.529334,-0.10374 2.323634,1.72017 3.0702,3.12088 0.916533,1.71961 1.830956,5.48444 2.131688,8.77648 0.292076,3.19742 0.04324,8.9492 -0.675903,15.62586 -0.246137,2.28505 -0.397229,4.20493 -0.335746,4.26641 0.06149,0.0615 1.23983,-0.23712 2.618558,-0.66354 l 2.506772,-0.77533 0.795893,-4.12086 c 2.148969,-11.12669 5.136692,-20.58263 7.937762,-25.12248 1.408258,-2.28244 1.428408,-2.25607 1.931768,2.52803 0.5925,5.6314 0.78708,13.16061 0.53985,20.88923 -0.1267,3.96044 -0.20118,7.22998 -0.16554,7.26563 0.0466,0.0466 5.23381,-1.33996 5.5403,-1.48089 0.0202,-0.009 0.13978,-1.52756 0.26559,-3.3739 0.75104,-11.02186 2.99085,-19.26626 6.33005,-23.30007 1.40414,-1.69622 1.44821,-1.63614 2.22529,3.03341 1.55261,9.32966 2.7887,21.66435 2.79222,27.86295 l 7.9e-4,1.7165 -1.13269,0.64806 c -5.29353,3.02864 -11.26278,3.59652 -15.47171,1.47184 l -1.27541,-0.64383 0.13338,1.42913 c 0.286,3.06446 0.20755,2.89492 1.8426,3.9819 3.76524,2.50313 7.09738,2.58789 10.96046,0.27882 1.66817,-0.9971 5.69753,-4.86523 5.96764,-5.72886 0.33047,-1.05656 1.42916,-6.64303 2.0288,-10.31576 0.45826,-2.80678 0.64725,-4.81198 0.90138,-9.56408 0.0154,-0.28865 -0.0666,-2.1604 -0.18246,-4.15944 z m -48.245147,5.92441 c -0.28772,0.17782 -10.583804,-0.47748 -10.79327,-0.68696 -0.0981,-0.0981 -0.149338,-0.68779 -0.113867,-1.31045 l 0.06449,-1.13209 2.204235,-0.15996 c 1.21233,-0.088 3.668474,-0.13522 5.458101,-0.10497 l 3.253877,0.055 0.06102,1.60928 c 0.03356,0.8851 -0.02698,1.66367 -0.134557,1.73014 z m -12.024224,7.36686 c -0.22888,0.34638 -0.978441,1.73976 -1.66569,3.09641 -0.687252,1.35665 -1.347976,2.46665 -1.468281,2.46665 -0.872728,0 -2.71591,-1.77877 -3.365968,-3.24833 -1.092235,-2.46918 -1.127099,-2.964 -1.050549,-14.91037 0.03921,-6.11937 0.130625,-12.66305 0.203138,-14.54147 l 0.131842,-3.41535 2.729054,-1.24447 c 1.533362,-0.69922 2.80872,-1.16504 2.910885,-1.0632 0.102482,0.10216 -0.01337,6.16644 -0.265477,13.89659 -0.246023,7.54345 -0.445105,14.04599 -0.442407,14.4501 0.004,0.60851 0.237369,0.98723 1.35788,2.20423 0.744137,0.80822 1.350443,1.51673 1.347346,1.57446 -0.0031,0.0578 -0.192896,0.38835 -0.421773,0.73475 z m -9.447671,6.71765 c -0.226297,1.03915 -0.794062,3.4717 -1.2617,5.40566 l -0.850254,3.51632 -0.976847,0.86879 c -1.972488,1.75428 -5.274899,2.89878 -8.385633,2.90618 -6.102889,0.0145 -10.883012,-3.40541 -12.341955,-8.83008 -0.476804,-1.77285 -0.48072,-5.80417 -0.0077,-7.92967 0.822526,-3.69598 2.718783,-7.20215 5.412382,-10.00743 l 1.012772,-1.05476 -0.243419,-1.88422 c -0.185472,-1.43569 -0.184362,-2.6338 0.0047,-5.03313 0.54778,-6.95298 2.575259,-13.6163 5.293689,-17.39771 l 0.886625,-1.23332 1.119084,0.1155 c 1.66957,0.17232 3.620773,1.22751 5.070555,2.74211 2.056728,2.14867 3.107141,4.41052 3.328104,7.16641 0.110022,1.37214 -0.405933,7.46682 -0.668009,7.89086 -0.244425,0.39549 -0.490832,0.14074 -1.683262,-1.74025 -2.78667,-4.39578 -5.681824,-7.04678 -8.129637,-7.444 l -0.726919,-0.11796 -0.263736,1.85795 c -0.916607,6.45725 1.338245,12.71587 4.945101,13.72572 0.536183,0.15012 1.026596,0.40773 1.089805,0.57245 0.06321,0.16471 -0.324327,1.65135 -0.861193,3.30362 -1.026604,3.15949 -1.381116,3.67906 -2.510233,3.67906 -0.811786,0 -3.296547,-1.36057 -4.585485,-2.51085 l -1.191057,-1.06293 -0.455317,1.2096 c -1.824511,4.84698 -1.695506,9.34428 0.332423,11.58896 1.507139,1.66823 4.134606,2.56432 7.648226,2.60843 3.028393,0.038 3.932376,-0.39195 6.840324,-3.25351 1.193572,-1.17455 2.253391,-2.05541 2.379322,-1.97758 0.270502,0.16717 0.287899,-0.0157 -0.220707,2.31979 z"
             id="path368-3"
             sodipodi:nodetypes="csssssssssssssccccssscscscsssccccsscccssssssssccccssssscssccscssssscssssssccsscssssscsssssssccccsscsscsscssssscsccssssscscssssssssssssssscsscsscccccssssscsscssscccsscccsssscsssssscccsssscssscccsssscssssssssscsssssssssccsscssssscccssscsscssssssssscssssssscscscssscscscsssssscsssssscssssscc" />
        </g>
      </g>
      <g
         id="g1463"
         transform="matrix(0.64941332,0,0,0.64941332,58.453422,59.770407)">
        <circle
           cx="171.08238"
           cy="5.3267808"
           fill="#5e1914"
           stroke="transparent"
           stroke-width="0"
           fill-opacity="1"
           data-fill-palette-color="accent"
           id="ellipse265"
           r="24.609972"
           style="fill:#ffffff" />
        <g
           id="g1805">
          <path
             d="m 180.71565,1.3807598 c -0.5926,0 -1.07468,-0.48054494 -1.07468,-1.07468566 V -10.457756 c 0,-0.593636 0.48157,-1.074696 1.07468,-1.074696 0.59366,0 1.07471,0.480546 1.07471,1.074696 V 0.30607414 c -3.7e-4,0.59415042 -0.48105,1.07468566 -1.07471,1.07468566 z m -5.20561,0 c -0.59261,0 -1.07468,-0.48054494 -1.07468,-1.07468566 V -10.457756 c 0,-0.593636 0.48155,-1.074696 1.07468,-1.074696 0.59364,0 1.07469,0.480546 1.07469,1.074696 V 0.30607414 c -3.6e-4,0.59415042 -0.48105,1.07468566 -1.07469,1.07468566 z m 2.6028,20.7999322 c -3.21026,0 -4.27523,-2.136591 -4.38782,-3.266544 -0.004,-0.03584 -0.006,-0.07265 -0.006,-0.107983 V 7.706615 c -0.65044,-0.5705998 -1.97487,-1.8019126 -3.05776,-3.250171 -0.35466,-0.4759417 -0.25793,-1.1489009 0.21699,-1.50408 0.47696,-0.3541302 1.1494,-0.2574231 1.50406,0.2174893 1.30242,1.7415168 3.07261,3.1933975 3.08949,3.2082172 0.25076,0.2037087 0.39662,0.5102332 0.39662,0.8331506 V 18.731435 c 0.0512,0.269183 0.37204,1.300372 2.24406,1.300372 1.9191,0 2.20619,-1.075201 2.24511,-1.295254 V 7.2107065 c 0,-0.3229175 0.14483,-0.6289467 0.39558,-0.8336556 1.69699,-1.3837934 4.38987,-4.256303 4.38987,-6.07049116 V -10.457775 c 0,-0.593636 0.48156,-1.074696 1.07571,-1.074696 0.59262,0 1.07469,0.480545 1.07469,1.074696 V 0.30606454 c 0,2.97638406 -3.52142,6.30383916 -4.787,7.40309496 V 18.806145 c 0,0.03535 -0.002,0.07216 -0.005,0.107982 -0.11361,1.129964 -1.17807,3.266555 -4.38834,3.266555 z M 163.96426,5.110456 v 0 c -0.67297,0 -1.62126,-0.060405 -2.31879,-0.3520908 -1.44316,-0.6043862 -3.53165,-2.7793665 -3.53165,-5.13396138 0,-1.87560372 0.9145,-3.94413622 0.95341,-4.03113192 0.17298,-0.387402 0.55731,-0.6361138 0.98104,-0.6361138 h 8.00749 c 0.42423,0 0.80909,0.2492265 0.98155,0.6366285 0.0383,0.087015 0.95238,2.1550135 0.95238,4.03061722 0,2.21949808 -1.8935,4.55209618 -3.58539,5.15443328 -0.84285,0.2998915 -1.98714,0.3316189 -2.44004,0.3316189 z m 3.76704,3.1125201 c 2.24203,-0.7978298 5.50089,-4.2782996 5.50089,-7.91690196 0,-2.84231664 -1.39146,-10.62412114 -1.44929,-10.95369014 -0.0931,-0.512272 -0.53786,-0.884845 -1.05833,-0.884845 h -13.34615 c -0.52045,0 -0.96569,0.372573 -1.05781,0.884845 -0.0583,0.330085 -1.44929,8.1118785 -1.44929,10.95369014 0,3.48098456 3.17188,6.94406106 5.44615,7.89593486 0.78198,0.3270059 1.81419,0.4559651 2.65961,0.5040759 v 9.1205771 c -2.37866,0.415546 -3.21436,2.184186 -3.31415,3.17648 -0.0307,0.302455 0.0686,0.603357 0.27224,0.828547 0.20319,0.225172 0.49336,0.353616 0.79682,0.353616 h 6.63905 c 0.005,9.71e-4 0.0107,9.71e-4 0.0138,0 0.59363,0 1.07468,-0.481059 1.07468,-1.074686 0,-0.117189 -0.0179,-0.230308 -0.0532,-0.335707 -0.19549,-1.014814 -1.07419,-2.563926 -3.28037,-2.948756 V 8.6902358 c 1.02761,-0.073225 1.95491,-0.2359218 2.60537,-0.4672402 z M 161.14753,6.218928 c -1.66168,-0.6949752 -4.12682,-3.4840533 -4.12682,-5.91286346 0,-2.11868284 0.89508,-7.54947554 1.26199,-9.68964954 h 11.53812 c 0.36693,2.140174 1.26251,7.570452 1.26251,9.68964954 0,2.53524826 -2.47129,5.32178196 -4.07257,5.89187686 -0.6612,0.234902 -1.87968,0.3868969 -3.10432,0.3868969 -1.18012,0 -2.21131,-0.1361262 -2.75891,-0.3659103 z"
             style="fill:#000000;stroke-width:0.362625"
             id="path2111"
             inkscape:label="path2111" />
        </g>
        <path
           d="m 111.556,69.86414 v 0 c 0.33275,0 0.62606,0.0678 0.87993,0.20335 0.25141,0.13556 0.44859,0.31056 0.59155,0.52499 0.14049,0.2169 0.21074,0.46092 0.21074,0.73205 v 0 c 0,0.30809 -0.0949,0.57921 -0.28469,0.81337 -0.19225,0.23415 -0.44859,0.35123 -0.76901,0.35123 v 0 c -0.2588,0 -0.48679,-0.0838 -0.68398,-0.25141 -0.19718,-0.16514 -0.29577,-0.40176 -0.29577,-0.70985 v 0 c 0,-0.23416 0.0641,-0.43504 0.19225,-0.60264 0.13064,-0.16515 0.27606,-0.29701 0.43627,-0.3956 v 0 c -0.0863,-0.12324 -0.21567,-0.18486 -0.3882,-0.18486 v 0 c -0.51761,0 -0.96743,0.19349 -1.34947,0.58046 -0.38205,0.38943 -0.68028,0.85527 -0.89472,1.39753 -0.2169,0.54224 -0.32535,1.04136 -0.32535,1.49735 v 0 3.919 c 0,0.60387 0.17623,1.00686 0.52869,1.20897 0.35,0.20458 0.82694,0.30687 1.43081,0.30687 v 0 0.3882 c -0.28345,-0.0123 -0.68397,-0.0283 -1.20158,-0.0481 -0.5176,-0.0173 -1.06602,-0.0259 -1.64524,-0.0259 v 0 c -0.41902,0 -0.83434,0.009 -1.24595,0.0259 -0.41409,0.0197 -0.72588,0.0357 -0.93539,0.0481 v 0 -0.3882 c 0.50528,0 0.86637,-0.0924 1.08327,-0.27729 0.21444,-0.18486 0.32166,-0.53609 0.32166,-1.05369 v 0 -5.78607 c 0,-0.55457 -0.0986,-0.96496 -0.29578,-1.23116 -0.19718,-0.26373 -0.5669,-0.39559 -1.10915,-0.39559 v 0 -0.38821 c 0.39437,0.037 0.77641,0.0555 1.14613,0.0555 v 0 c 0.35739,0 0.69999,-0.0222 1.02781,-0.0665 0.32535,-0.0419 0.62359,-0.10599 0.89472,-0.19226 v 0 2.31073 c 0.13556,-0.35739 0.33028,-0.71848 0.58415,-1.08327 0.25141,-0.36232 0.55581,-0.66672 0.9132,-0.9132 0.3574,-0.24647 0.75176,-0.36972 1.1831,-0.36972 z m 6.59946,0 v 0 c 1.08451,0 1.93116,0.32905 2.53996,0.98714 0.61127,0.66057 0.91691,1.68714 0.91691,3.07975 v 0 h -6.52552 l -0.0185,-0.35123 h 4.76935 c 0.0246,-0.60388 -0.0246,-1.16215 -0.14788,-1.67483 -0.12324,-0.5102 -0.31796,-0.91936 -0.58416,-1.22745 -0.26373,-0.3081 -0.6051,-0.46215 -1.02411,-0.46215 v 0 c -0.5669,0 -1.06972,0.28345 -1.50845,0.85035 -0.43627,0.5669 -0.69754,1.46654 -0.7838,2.69894 v 0 l 0.0555,0.0739 c -0.0246,0.18486 -0.0431,0.3882 -0.0555,0.61003 -0.0123,0.22183 -0.0185,0.44366 -0.0185,0.66549 v 0 c 0,0.83802 0.13556,1.55897 0.40668,2.16284 0.27113,0.60387 0.62483,1.06232 1.0611,1.37535 0.43873,0.31549 0.89225,0.47323 1.36056,0.47323 v 0 c 0.55457,0 1.06602,-0.13555 1.53433,-0.40668 0.46831,-0.27113 0.86267,-0.75176 1.18309,-1.4419 v 0 l 0.36972,0.14789 c -0.13556,0.40669 -0.35739,0.80105 -0.66549,1.18309 -0.3081,0.38205 -0.6963,0.69261 -1.16461,0.93169 -0.46831,0.24155 -1.01056,0.36232 -1.62676,0.36232 v 0 c -0.88732,0 -1.64894,-0.20334 -2.28486,-0.61003 -0.63345,-0.40669 -1.12024,-0.97112 -1.46038,-1.6933 -0.33768,-0.71972 -0.50651,-1.54788 -0.50651,-2.4845 v 0 c 0,-1.08451 0.17253,-2.01865 0.5176,-2.80246 0.34507,-0.78133 0.83187,-1.3852 1.46039,-1.81161 0.62852,-0.42394 1.36179,-0.63591 2.19982,-0.63591 z m 8.17076,0 v 0 c 0.49296,0 0.91074,0.0801 1.25334,0.24032 0.34753,0.16021 0.60141,0.30809 0.76162,0.44366 v 0 c 0.40668,0.33274 0.65316,0.11092 0.73943,-0.66549 v 0 h 0.42517 c -0.0246,0.34506 -0.0431,0.75422 -0.0555,1.22746 -0.0148,0.4757 -0.0222,1.11407 -0.0222,1.91513 v 0 h -0.42147 c -0.074,-0.45598 -0.20088,-0.89965 -0.38081,-1.33098 -0.17746,-0.43134 -0.43873,-0.78627 -0.7838,-1.06479 -0.34507,-0.27605 -0.79489,-0.41408 -1.34947,-0.41408 v 0 c -0.43133,0 -0.79243,0.11954 -1.08327,0.35863 -0.28838,0.24154 -0.43257,0.59647 -0.43257,1.06478 v 0 c 0,0.36972 0.11092,0.68767 0.33275,0.95387 0.21936,0.26374 0.50897,0.51021 0.86883,0.73943 0.35739,0.22676 0.7456,0.4757 1.16461,0.74683 v 0 c 0.70246,0.45599 1.30017,0.91813 1.79313,1.38644 0.49295,0.46831 0.73943,1.08451 0.73943,1.84859 v 0 c 0,0.56689 -0.14912,1.04136 -0.44736,1.42341 -0.2933,0.38204 -0.67781,0.67165 -1.15351,0.86883 -0.47324,0.19718 -0.99331,0.29577 -1.56021,0.29577 v 0 c -0.27112,0 -0.52746,-0.0209 -0.76901,-0.0628 -0.23908,-0.0443 -0.46954,-0.10968 -0.69137,-0.19594 v 0 c -0.12324,-0.0616 -0.25017,-0.13557 -0.38081,-0.22183 -0.12817,-0.0863 -0.25387,-0.1787 -0.37711,-0.27729 v 0 c -0.12324,-0.0986 -0.23539,-0.0961 -0.33644,0.007 -0.0961,0.10599 -0.16884,0.31303 -0.21813,0.62113 v 0 h -0.42888 c 0.0271,-0.39437 0.0468,-0.875 0.0592,-1.4419 0.0123,-0.5669 0.0185,-1.31866 0.0185,-2.25527 v 0 h 0.42518 c 0.0863,0.69014 0.20951,1.29401 0.36972,1.81162 0.15774,0.5176 0.41038,0.92059 0.75792,1.20897 0.34507,0.29084 0.8257,0.43626 1.44189,0.43626 v 0 c 0.36972,0 0.73574,-0.1294 1.09806,-0.3882 0.36232,-0.2588 0.54348,-0.71479 0.54348,-1.36795 v 0 c 0,-0.54226 -0.19595,-0.98592 -0.58785,-1.33098 -0.39436,-0.34507 -0.89348,-0.70863 -1.49735,-1.09067 v 0 c -0.44366,-0.28345 -0.86021,-0.5669 -1.24964,-0.85035 -0.38697,-0.28345 -0.70123,-0.60387 -0.94278,-0.96126 -0.23908,-0.3574 -0.35863,-0.78873 -0.35863,-1.29401 v 0 c 0,-0.55458 0.12571,-1.00809 0.37712,-1.36056 0.25141,-0.34999 0.58785,-0.6088 1.00932,-0.7764 0.41902,-0.16514 0.86884,-0.24772 1.34947,-0.24772 z m 7.92673,-2.80985 v 0 3.08714 h 2.73591 v 0.36972 h -2.73591 v 7.15402 c 0,0.57922 0.10475,0.98591 0.31426,1.22006 0.2095,0.23416 0.49912,0.35123 0.86883,0.35123 v 0 c 0.36972,0 0.69014,-0.15158 0.96127,-0.45475 0.27112,-0.3007 0.50528,-0.80845 0.70246,-1.52323 v 0 l 0.36971,0.0924 c -0.12323,0.71479 -0.36601,1.31866 -0.72834,1.81162 -0.36478,0.49295 -0.92305,0.73943 -1.67481,0.73943 v 0 c -0.41902,0 -0.76408,-0.0518 -1.03521,-0.15528 -0.27113,-0.10598 -0.51144,-0.25757 -0.72095,-0.45475 v 0 c -0.27112,-0.28345 -0.45845,-0.62236 -0.56197,-1.01672 -0.10598,-0.39437 -0.15898,-0.91813 -0.15898,-1.5713 v 0 -6.19275 h -1.77464 v -0.36972 h 1.77464 v -2.82834 c 0.3081,-0.0123 0.60388,-0.037 0.88732,-0.0739 0.28345,-0.0369 0.54226,-0.0986 0.77641,-0.18486 z m 6.04487,12.71826 v 0 c -0.80105,0 -1.38274,-0.20088 -1.74506,-0.60263 -0.36479,-0.3993 -0.54718,-0.93169 -0.54718,-1.59718 v 0 c 0,-0.51761 0.12693,-0.94648 0.38081,-1.28662 0.2514,-0.33767 0.57429,-0.61496 0.96865,-0.83186 0.39437,-0.21443 0.81091,-0.39929 1.24965,-0.55458 0.43626,-0.15282 0.85158,-0.30316 1.24594,-0.45105 0.39437,-0.14789 0.71849,-0.31426 0.97236,-0.49912 0.25141,-0.18485 0.37711,-0.41901 0.37711,-0.70246 v 0 -1.14612 c 0,-0.5176 -0.0764,-0.91197 -0.22923,-1.18309 -0.15528,-0.27113 -0.36232,-0.45353 -0.62112,-0.54719 -0.2588,-0.0912 -0.54841,-0.13679 -0.86883,-0.13679 v 0 c -0.3081,0 -0.63715,0.0432 -0.98715,0.1294 -0.35246,0.0863 -0.63345,0.26496 -0.84295,0.53609 v 0 c 0.23415,0.0493 0.43749,0.17253 0.61003,0.36972 0.17253,0.19717 0.2588,0.44982 0.2588,0.75792 v 0 c 0,0.30809 -0.0986,0.55087 -0.29577,0.72833 -0.19718,0.17994 -0.44982,0.2699 -0.75792,0.2699 v 0 c -0.35739,0 -0.61866,-0.11338 -0.7838,-0.34014 -0.16761,-0.22922 -0.25141,-0.48556 -0.25141,-0.76901 v 0 c 0,-0.32042 0.0801,-0.57923 0.24032,-0.7764 0.16021,-0.19719 0.36355,-0.38205 0.61003,-0.55458 v 0 c 0.28345,-0.19718 0.6507,-0.36725 1.10175,-0.51021 0.44859,-0.14049 0.95634,-0.21074 1.52324,-0.21074 v 0 c 0.50528,0 0.93662,0.0579 1.29401,0.17376 0.35739,0.11832 0.65317,0.28839 0.88732,0.51022 v 0 c 0.32042,0.29577 0.52993,0.65563 0.62852,1.07957 0.0986,0.4264 0.14789,0.93538 0.14789,1.52693 v 0 5.13906 c 0,0.29578 0.0431,0.51391 0.12939,0.6544 0.0863,0.14296 0.23416,0.21444 0.44367,0.21444 v 0 c 0.17253,0 0.32411,-0.037 0.45475,-0.11092 0.12817,-0.0739 0.25387,-0.16637 0.37711,-0.27729 v 0 l 0.20334,0.31427 c -0.2588,0.19718 -0.50528,0.35986 -0.73943,0.48802 -0.23416,0.13064 -0.54841,0.19595 -0.94278,0.19595 v 0 c -0.64084,0 -1.06602,-0.16637 -1.27552,-0.49912 -0.20951,-0.33274 -0.31426,-0.71478 -0.31426,-1.14612 v 0 c -0.39437,0.65317 -0.84049,1.09066 -1.33838,1.31249 -0.50035,0.22184 -1.02165,0.33275 -1.5639,0.33275 z m 0.81338,-0.73944 v 0 c 0.36972,0 0.73327,-0.10844 1.09066,-0.32534 0.3574,-0.21444 0.69014,-0.5743 0.99824,-1.07958 v 0 -3.62322 c -0.18486,0.27113 -0.47077,0.48679 -0.85774,0.647 -0.38944,0.16022 -0.78997,0.33521 -1.20159,0.525 -0.41408,0.19225 -0.769,0.45106 -1.06478,0.7764 -0.29577,0.32782 -0.44366,0.79366 -0.44366,1.39753 v 0 c 0,0.56691 0.14173,0.98838 0.42518,1.26444 0.28344,0.27852 0.63467,0.41777 1.05369,0.41777 z m 14.30804,-9.11351 v 0 7.72708 c 0,0.55457 0.10106,0.96372 0.30317,1.22746 0.20457,0.2662 0.57183,0.39929 1.10175,0.39929 v 0 0.38821 c -0.38203,-0.037 -0.76408,-0.0555 -1.14612,-0.0555 v 0 c -0.35739,0 -0.7,0.0185 -1.02781,0.0555 -0.32535,0.037 -0.62359,0.10475 -0.89472,0.20334 v 0 -2.18133 c -0.30809,0.80105 -0.74313,1.37042 -1.3051,1.7081 -0.5595,0.34013 -1.13503,0.5102 -1.72657,0.5102 v 0 c -0.43134,0 -0.80722,-0.0616 -1.12764,-0.18486 -0.32042,-0.12323 -0.58538,-0.29577 -0.79489,-0.5176 v 0 c -0.23416,-0.24647 -0.39436,-0.5669 -0.48063,-0.96126 -0.0863,-0.39436 -0.1294,-0.88116 -0.1294,-1.46039 v 0 -4.63994 c 0,-0.55457 -0.0986,-0.96496 -0.29578,-1.23116 -0.19718,-0.26373 -0.5669,-0.39559 -1.10915,-0.39559 v 0 -0.38821 c 0.39437,0.037 0.77641,0.0555 1.14612,0.0555 v 0 c 0.3574,0 0.69877,-0.0222 1.02412,-0.0665 0.32782,-0.0419 0.62729,-0.10599 0.89841,-0.19226 v 0 7.26494 c 0,0.38204 0.0246,0.73327 0.074,1.05369 0.0493,0.32042 0.17253,0.57923 0.36972,0.77641 0.19718,0.19718 0.5176,0.29577 0.96126,0.29577 v 0 c 0.72711,0 1.32482,-0.32412 1.79313,-0.97235 0.46831,-0.64578 0.70246,-1.43697 0.70246,-2.37359 v 0 -3.82657 c 0,-0.55457 -0.0986,-0.96496 -0.29578,-1.23115 -0.19718,-0.26374 -0.5669,-0.3956 -1.10915,-0.3956 v 0 -0.38821 c 0.39437,0.037 0.77641,0.0555 1.14613,0.0555 v 0 c 0.35739,0 0.69876,-0.0222 1.02411,-0.0665 0.32782,-0.0419 0.62729,-0.10599 0.89841,-0.19225 z m 8.0968,-0.0555 v 0 c 0.33274,0 0.62482,0.0678 0.87623,0.20335 0.25387,0.13557 0.45106,0.31056 0.59154,0.525 0.14296,0.2169 0.21444,0.46092 0.21444,0.73204 v 0 c 0,0.30809 -0.0961,0.57922 -0.28838,0.81337 -0.18979,0.23416 -0.44489,0.35123 -0.76531,0.35123 v 0 c -0.2588,0 -0.48679,-0.0838 -0.68398,-0.2514 -0.19718,-0.16514 -0.29577,-0.40176 -0.29577,-0.70986 v 0 c 0,-0.23415 0.0641,-0.43503 0.19225,-0.60263 0.13063,-0.16515 0.27605,-0.29701 0.43627,-0.39561 v 0 c -0.0863,-0.12323 -0.21568,-0.18486 -0.3882,-0.18486 v 0 c -0.51761,0 -0.96743,0.1935 -1.34947,0.58047 -0.38204,0.38943 -0.68151,0.85527 -0.89841,1.39752 -0.21444,0.54225 -0.32166,1.04137 -0.32166,1.49736 v 0 3.919 c 0,0.60386 0.175,1.00685 0.525,1.20897 0.35246,0.20457 0.83063,0.30687 1.4345,0.30687 v 0 0.3882 c -0.28345,-0.0123 -0.68397,-0.0283 -1.20158,-0.0481 -0.5176,-0.0173 -1.06601,-0.0259 -1.64524,-0.0259 v 0 c -0.41901,0 -0.83556,0.009 -1.24964,0.0259 -0.41162,0.0197 -0.72218,0.0358 -0.93169,0.0481 v 0 -0.3882 c 0.50528,0 0.86514,-0.0924 1.07958,-0.27729 0.2169,-0.18486 0.32535,-0.53609 0.32535,-1.05369 v 0 -5.78608 c 0,-0.55457 -0.0986,-0.96496 -0.29578,-1.23115 -0.19718,-0.26374 -0.56689,-0.3956 -1.10915,-0.3956 v 0 -0.38821 c 0.39437,0.037 0.77641,0.0555 1.14613,0.0555 v 0 c 0.35739,0 0.69876,-0.0222 1.02411,-0.0665 0.32782,-0.0419 0.62729,-0.10599 0.89841,-0.19225 v 0 2.31073 c 0.13556,-0.35739 0.32905,-0.71848 0.58046,-1.08328 0.25387,-0.36231 0.5595,-0.66672 0.9169,-0.91319 0.35739,-0.24648 0.75176,-0.36972 1.18309,-0.36972 z m 4.95051,9.90842 v 0 c -0.80105,0 -1.38274,-0.20088 -1.74506,-0.60264 -0.36479,-0.39929 -0.54719,-0.93168 -0.54719,-1.59717 v 0 c 0,-0.51761 0.12694,-0.94648 0.38081,-1.28662 0.25141,-0.33767 0.5743,-0.61496 0.96866,-0.83186 0.39436,-0.21444 0.81091,-0.3993 1.24965,-0.55458 0.43626,-0.15282 0.85158,-0.30317 1.24594,-0.45105 0.39436,-0.14789 0.71848,-0.31426 0.97236,-0.49912 0.2514,-0.18486 0.3771,-0.41901 0.3771,-0.70247 v 0 -1.14612 c 0,-0.5176 -0.0764,-0.91196 -0.22922,-1.18309 -0.15528,-0.27112 -0.36232,-0.45352 -0.62112,-0.54718 -0.25881,-0.0912 -0.54842,-0.1368 -0.86884,-0.1368 v 0 c -0.3081,0 -0.63714,0.0432 -0.98714,0.1294 -0.35246,0.0863 -0.63345,0.26497 -0.84296,0.53609 v 0 c 0.23416,0.0493 0.43751,0.17254 0.61004,0.36972 0.17253,0.19718 0.2588,0.44983 0.2588,0.75792 v 0 c 0,0.30809 -0.0986,0.55087 -0.29577,0.72834 -0.19719,0.17993 -0.44982,0.26989 -0.75792,0.26989 v 0 c -0.35739,0 -0.61866,-0.11338 -0.7838,-0.34013 -0.16761,-0.22923 -0.25141,-0.48556 -0.25141,-0.76902 v 0 c 0,-0.32042 0.0801,-0.57922 0.24031,-0.7764 0.16022,-0.19718 0.36356,-0.38204 0.61004,-0.55458 v 0 c 0.28344,-0.19718 0.6507,-0.36725 1.10176,-0.5102 0.44858,-0.1405 0.95633,-0.21075 1.52323,-0.21075 v 0 c 0.50528,0 0.93662,0.0579 1.294,0.17377 0.3574,0.11831 0.65317,0.28838 0.88733,0.51021 v 0 c 0.32042,0.29577 0.52993,0.65564 0.62851,1.07958 0.0986,0.4264 0.14789,0.93538 0.14789,1.52692 v 0 5.13907 c 0,0.29578 0.0432,0.51391 0.1294,0.6544 0.0863,0.14296 0.23416,0.21444 0.44366,0.21444 v 0 c 0.17254,0 0.32412,-0.037 0.45475,-0.11092 0.12817,-0.0739 0.25388,-0.16637 0.37711,-0.27729 v 0 l 0.20335,0.31427 c -0.2588,0.19717 -0.50528,0.35985 -0.73944,0.48802 -0.23414,0.13063 -0.5484,0.19595 -0.94277,0.19595 v 0 c -0.64084,0 -1.06602,-0.16637 -1.27553,-0.49912 -0.2095,-0.33274 -0.31426,-0.71479 -0.31426,-1.14612 v 0 c -0.39436,0.65316 -0.84048,1.09066 -1.33837,1.31249 -0.50035,0.22184 -1.02165,0.33275 -1.5639,0.33275 z m 0.81337,-0.73944 v 0 c 0.36972,0 0.73328,-0.10844 1.09067,-0.32535 0.35739,-0.21443 0.69014,-0.57429 0.99823,-1.07957 v 0 -3.62323 c -0.18485,0.27113 -0.47077,0.4868 -0.85774,0.64701 -0.38943,0.16021 -0.78996,0.33521 -1.20157,0.525 -0.41409,0.19225 -0.76902,0.45105 -1.06479,0.7764 -0.29577,0.32782 -0.44366,0.79366 -0.44366,1.39753 v 0 c 0,0.5669 0.14173,0.98837 0.42517,1.26443 0.28345,0.27852 0.63468,0.41778 1.05369,0.41778 z m 12.12672,-9.16898 v 0 c 0.4683,0 0.8602,0.0616 1.1757,0.18486 0.31302,0.12325 0.57429,0.29577 0.7838,0.51761 v 0 c 0.23415,0.24648 0.40053,0.55457 0.49912,0.92429 0.0986,0.36971 0.14788,0.86883 0.14788,1.49735 v 0 4.93573 c 0,0.5176 0.10846,0.86883 0.32535,1.05369 0.21444,0.18486 0.5743,0.27729 1.07958,0.27729 v 0 0.3882 c -0.20951,-0.0123 -0.52993,-0.0283 -0.96126,-0.0481 -0.43134,-0.0173 -0.85035,-0.0259 -1.25704,-0.0259 v 0 c -0.40669,0 -0.80352,0.009 -1.19049,0.0259 -0.38944,0.0197 -0.68275,0.0358 -0.87993,0.0481 v 0 -0.3882 c 0.44366,0 0.75792,-0.0924 0.94278,-0.27729 0.18486,-0.18486 0.27729,-0.53609 0.27729,-1.05369 v 0 -5.34242 c 0,-0.38203 -0.0308,-0.73327 -0.0924,-1.05369 -0.0616,-0.32042 -0.19965,-0.57922 -0.41409,-0.77641 -0.21689,-0.19717 -0.54717,-0.29577 -0.99083,-0.29577 v 0 c -0.77641,0 -1.40123,0.32289 -1.87447,0.96867 -0.4757,0.64823 -0.71355,1.44682 -0.71355,2.39576 v 0 4.10386 c 0,0.5176 0.0924,0.86883 0.27728,1.05369 0.18486,0.18486 0.49912,0.27729 0.94278,0.27729 v 0 0.3882 c -0.19718,-0.0123 -0.48926,-0.0283 -0.87623,-0.0481 -0.38944,-0.0173 -0.78749,-0.0259 -1.19418,-0.0259 v 0 c -0.40669,0 -0.8257,0.009 -1.25704,0.0259 -0.43134,0.0197 -0.75176,0.0358 -0.96127,0.0481 v 0 -0.3882 c 0.50529,0 0.86637,-0.0924 1.08328,-0.27729 0.21443,-0.18486 0.32165,-0.53609 0.32165,-1.05369 v 0 -5.78608 c 0,-0.55457 -0.0986,-0.96496 -0.29578,-1.23115 -0.19717,-0.26374 -0.56689,-0.3956 -1.10915,-0.3956 v 0 -0.38821 c 0.39437,0.037 0.77641,0.0555 1.14613,0.0555 v 0 c 0.35739,0 0.69999,-0.0222 1.02781,-0.0665 0.32536,-0.0419 0.62359,-0.10599 0.89472,-0.19225 v 0 2.18133 c 0.32042,-0.83803 0.76777,-1.42095 1.34206,-1.74876 0.57183,-0.32535 1.17201,-0.48803 1.80053,-0.48803 z m 7.80102,-2.80984 v 0 3.08713 h 2.73591 v 0.36972 h -2.73591 v 7.15403 c 0,0.57921 0.10476,0.9859 0.31426,1.22006 0.20951,0.23415 0.49912,0.35123 0.86884,0.35123 v 0 c 0.36971,0 0.69014,-0.15158 0.96126,-0.45476 0.27113,-0.30069 0.50529,-0.80844 0.70246,-1.52322 v 0 l 0.36972,0.0924 c -0.12323,0.71479 -0.36725,1.31866 -0.73204,1.81162 -0.36232,0.49295 -0.91936,0.73943 -1.67112,0.73943 v 0 c -0.41901,0 -0.76408,-0.0518 -1.03521,-0.15528 -0.27112,-0.10598 -0.51144,-0.25757 -0.72094,-0.45475 v 0 c -0.27113,-0.28346 -0.45969,-0.62236 -0.56567,-1.01672 -0.10352,-0.39437 -0.15528,-0.91813 -0.15528,-1.5713 v 0 -6.19276 h -1.77464 v -0.36972 h 1.77464 v -2.82833 c 0.3081,-0.0123 0.60387,-0.037 0.88732,-0.0739 0.28345,-0.0369 0.54225,-0.0986 0.7764,-0.18485 z"
           style="fill:#ffffff;stroke-width:0.324609"
           id="path1473" />
        <path
           d="m 86.479746,72.667038 c 0.07978,0.07978 0.186146,0.10637 0.292514,0.10637 0.106371,0 0.212739,-0.02659 0.292517,-0.10637 0.159553,-0.159553 0.159553,-0.398885 0,-0.558438 l -0.744586,-0.744585 c -0.159555,-0.159555 -0.398885,-0.159555 -0.558437,0 -0.159555,0.159554 -0.159555,0.398884 0,0.558439 z m -1.276432,1.329618 h 1.063693 c 0.212739,0 0.398885,-0.186147 0.398885,-0.398886 0,-0.212738 -0.186146,-0.398884 -0.398885,-0.398884 h -1.063693 c -0.212739,0 -0.398885,0.186146 -0.398885,0.398884 0,0.212739 0.186146,0.398886 0.398885,0.398886 z m 2.765601,-1.701909 c 0.212739,0 0.398886,-0.186147 0.398886,-0.398885 v -1.063693 c 0,-0.212739 -0.186147,-0.398885 -0.398886,-0.398885 -0.212738,0 -0.398885,0.186146 -0.398885,0.398885 v 1.063693 c 0,0.212738 0.159555,0.398885 0.398885,0.398885 z m 12.977055,6.169419 h -1.595537 c -0.07978,-3.563372 -2.871974,-6.435344 -6.382159,-6.648082 V 70.61943 c 0.638215,-0.186146 1.090285,-0.744585 1.090285,-1.435986 0,-0.824362 -0.664808,-1.48917 -1.48917,-1.48917 -0.824363,0 -1.48917,0.664808 -1.48917,1.48917 0,0.691401 0.478661,1.276432 1.090284,1.435986 v 1.196654 c -3.510187,0.212738 -6.328973,3.08471 -6.382158,6.648082 h -1.595539 c -0.21274,0 -0.398886,0.186147 -0.398886,0.398885 0,0.212739 0.186146,0.398885 0.398886,0.398885 h 16.753164 c 0.21274,0 0.39888,-0.186146 0.39888,-0.398885 0,-0.212738 -0.18614,-0.398885 -0.39888,-0.398885 z m -8.376581,-5.850312 c 3.270855,0 5.930088,2.606048 5.983272,5.850312 H 86.586114 c 0.05319,-3.244264 2.712418,-5.850312 5.983275,-5.850312 z"
           style="fill:#ffffff;stroke-width:0.193552"
           id="path1775"
           sodipodi:nodetypes="csssssccssssssssssssssscccssscccsssssssccs" />
        <circle
           style="fill:none;stroke:#000000;stroke-width:1.58919;stroke-dasharray:none;stop-color:#000000"
           id="path1540"
           cx="171.08238"
           cy="5.3267808"
           r="22.248701" />
      </g>
      <circle
         style="fill:#ff0000;stroke:none;stroke-width:2.10586;stroke-dasharray:none;stop-color:#000000"
         id="path1859"
         cx="118.56418"
         cy="104.65872"
         r="0.44999999" />
      <path
         style="fill:#ff0000;fill-opacity:1;stroke:none;stroke-width:2.65137;stroke-dasharray:none;stop-color:#000000"
         id="path1913"
         sodipodi:type="arc"
         sodipodi:cx="-118.53718"
         sodipodi:cy="-110.54442"
         sodipodi:rx="3.8931966"
         sodipodi:ry="3.7300258"
         sodipodi:start="6.232414"
         sodipodi:end="3.1898131"
         sodipodi:open="true"
         sodipodi:arc-type="arc"
         d="m -114.649,-110.73372 a 3.8931966,3.7300258 0 0 1 -1.88196,3.38594 3.8931966,3.7300258 0 0 1 -4.00392,0.005 3.8931966,3.7300258 0 0 1 -1.89097,-3.38132"
         transform="scale(-1)" />
    </g>
  </g>
</svg>
